PathFileType	4	(X/Y/Z)	C:\Users\Basilio\Documents\Thesis Gigler\squatting_fais\c3dfiles\040\SLS_pre_front4\markers_experimental.trc
DataRate	CameraRate	NumFrames	NumMarkers	Units	OrigDataRate	OrigDataStartFrame	OrigNumFrames
200.000000	200.000000	4	62	mm	200.000000	857	1372
Frame#	Time	FHD			LBHD			RBHD			C7			T10			CLAV			LSHO			LUUPA			LMUPA			LDUPA			LLEP			LMEP			LRAD			LUL			LRFIN			RSHO			RUPA1			RMUPA			RDUPA			RLEP			RMEP			RRAD			RUL			RUFIN			LASI			RASI			USACR			LSACR			RSACR			LTHI1			LTHI2			LTHI3			LTHI4			LLFC			LMFC			LTIB1			LTIB2			LTIB3			LTIB4			LLMAL			LMMAL			LHEE			LMT1			LMT2			LMT5			RTHI			RTHI2			RTHI3			RTHI4			RLFC			RMFC			RTIB1			RTIB2			RTIB3			RTIB4			RLMAL			RMMAL			RHEE			RMT1			RMT2			RMT5			*61			
		X1	Y1	Z1	X2	Y2	Z2	X3	Y3	Z3	X4	Y4	Z4	X5	Y5	Z5	X6	Y6	Z6	X7	Y7	Z7	X8	Y8	Z8	X9	Y9	Z9	X10	Y10	Z10	X11	Y11	Z11	X12	Y12	Z12	X13	Y13	Z13	X14	Y14	Z14	X15	Y15	Z15	X16	Y16	Z16	X17	Y17	Z17	X18	Y18	Z18	X19	Y19	Z19	X20	Y20	Z20	X21	Y21	Z21	X22	Y22	Z22	X23	Y23	Z23	X24	Y24	Z24	X25	Y25	Z25	X26	Y26	Z26	X27	Y27	Z27	X28	Y28	Z28	X29	Y29	Z29	X30	Y30	Z30	X31	Y31	Z31	X32	Y32	Z32	X33	Y33	Z33	X34	Y34	Z34	X35	Y35	Z35	X36	Y36	Z36	X37	Y37	Z37	X38	Y38	Z38	X39	Y39	Z39	X40	Y40	Z40	X41	Y41	Z41	X42	Y42	Z42	X43	Y43	Z43	X44	Y44	Z44	X45	Y45	Z45	X46	Y46	Z46	X47	Y47	Z47	X48	Y48	Z48	X49	Y49	Z49	X50	Y50	Z50	X51	Y51	Z51	X52	Y52	Z52	X53	Y53	Z53	X54	Y54	Z54	X55	Y55	Z55	X56	Y56	Z56	X57	Y57	Z57	X58	Y58	Z58	X59	Y59	Z59	X60	Y60	Z60	X61	Y61	Z61	X62	Y62	Z62	

858	4.285	-217.0762023925782	1654.511108398438	-1142.2998046875	-330.6067504882813	1584.213500976563	-1187.091430664063	-378.7341613769532	1534.338745117188	-1056.899047851563	-358.1311340332032	1433.824829101563	-1104.195068359375	-455.0153198242189	1143.917846679688	-1082.653930664063	-238.0350494384766	1363.876342773438	-1113.244750976563	-295.8598632812501	1438.988159179688	-1240.656005859375	-136.0761108398438	1436.137573242188	-1309.403076171875	-112.5004043579102	1448.432250976563	-1267.317993164063	-67.36691284179689	1436.13427734375	-1305.088134765625	-5.957691192626954	1421.086547851563	-1303.015869140625	-8.027257919311525	1362.7314453125	-1274.639282226563	nan	nan	nan	258.2568664550782	1494.994750976563	-1237.6806640625	320.2843017578126	1508.013061523438	-1141.109619140625	-262.9283142089844	1418.242797851563	-977.1842041015627	-100.5149688720703	1387.206909179688	-906.242858886719	-78.72991180419923	1414.825317382813	-940.0860595703127	-32.50626754760743	1382.875	-916.1774902343752	29.15635108947755	1386.802978515625	-931.386657714844	25.40375137329102	1331.900390625	-983.3381347656252	268.1155395507813	1483.0322265625	-1075.1767578125	286.0818481445313	1472.625854492188	-1002.23388671875	357.0928344726563	1511.810424804688	-1085.459350585938	-321.0653076171876	942.0371093750002	-1177.955444335938	-316.8502197265626	963.809753417969	-957.2996826171877	-499.8279418945314	993.9226684570315	-1061.440551757813	-510.7071228027345	961.6141357421877	-1086.664672851563	-510.0493774414064	966.4957275390627	-1030.4501953125	-319.4508361816407	681.3158569335939	-1221.145629882813	-245.6107788085938	639.5440673828126	-1232.088623046875	-208.5495605468751	667.2997436523439	-1240.254272460938	-231.2289428710938	584.8123779296876	-1212.599975585938	-149.594955444336	490.5355834960939	-1200.490844726563	-148.4330291748047	489.0626525878907	-1073.62353515625	-177.9840850830078	280.7097778320313	-1128.35205078125	-255.9159088134766	268.8977966308594	-1166.283447265625	-217.8075103759766	250.0510711669922	-1151.904541015625	-246.6592712402344	179.1811065673828	-1102.32568359375	-346.2199096679688	124.0691452026367	-1107.373046875	-305.1717834472657	139.3700866699219	-1026.969848632813	-412.0443115234376	97.42244720458987	-1048.980712890625	-198.6783752441407	56.8480911254883	-1050.712280273438	-204.316146850586	50.37005996704103	-1096.916625976563	-260.5945739746094	36.58406829833985	-1138.171020507813	-250.4594421386719	737.3541259765626	-871.867370605469	-190.8471069335938	711.4185791015626	-883.2937011718752	-165.419921875	732.3014526367189	-891.7920532226565	-169.7085571289063	631.7648925781251	-891.4843750000002	-82.65657806396486	529.6422119140626	-905.1304931640627	-80.86653900146486	524.2282104492189	-1040.858764648438	72.98815917968751	419.3758544921876	-935.4319458007815	68.63074493408205	313.8541564941407	-909.0613403320315	105.5478439331055	339.4067382812501	-920.8376464843752	146.7800903320313	315.6112365722657	-955.6057128906252	183.2267303466797	194.8639373779297	-934.6007080078127	184.5700378417969	216.1271057128907	-1021.55615234375	161.4614410400391	118.2882690429688	-986.4795532226565	340.4899291992188	250.1060791015626	-1008.257019042969	335.2292175292969	251.4307403564454	-969.1406250000002	321.5527343750001	206.8407440185547	-915.3139648437502	nan	nan	nan	
859	4.29	-217.6270294189454	1656.162475585938	-1142.084106445313	-330.5484619140626	1585.585083007813	-1186.925170898438	-378.7197875976563	1535.87353515625	-1056.846313476563	-358.3069458007813	1435.327026367188	-1104.137329101563	-454.789764404297	1145.375366210938	-1082.564575195313	-238.1370544433594	1365.5419921875	-1113.27392578125	-296.0960083007813	1440.555541992188	-1240.68505859375	-136.4619598388672	1437.730346679688	-1309.364013671875	-113.1542205810547	1450.374267578125	-1267.401123046875	-67.75078582763673	1437.346557617188	-1305.188354492188	-6.36381244659424	1422.384399414063	-1303.322875976563	-8.245680809020998	1364.338012695313	-1274.716796875	nan	nan	nan	258.4999389648438	1496.830444335938	-1238.128051757813	320.0469055175782	1509.567993164063	-1141.166381835938	-262.9476623535157	1419.880493164063	-977.1753540039065	-100.6976928710938	1388.805786132813	-906.3306884765627	-78.91847991943361	1416.429321289063	-940.1243286132815	-33.00024032592774	1384.360107421875	-916.7331542968752	29.04036331176759	1388.4306640625	-931.4646606445315	25.51709556579591	1333.345947265625	-983.335632324219	268.3897094726563	1484.558715820313	-1075.155639648438	286.0432434082032	1474.627563476563	-1002.120300292969	356.5974731445313	1513.545043945313	-1085.579223632813	-320.6323852539063	943.3523559570315	-1178.084838867188	-316.4319458007813	965.3826293945315	-957.3767700195315	-499.4758605957032	995.7934570312502	-1061.4619140625	-510.1619567871095	963.0495605468752	-1086.73583984375	-509.653778076172	967.8062133789065	-1030.404541015625	-319.7596435546876	682.3239746093751	-1221.342651367188	-246.1300201416016	640.4816894531251	-1232.32177734375	-209.0734558105469	668.0634765625001	-1240.432739257813	-231.8267669677735	585.8481445312501	-1212.763549804688	-150.2019500732422	491.2884216308595	-1200.70751953125	-148.995590209961	489.5530395507814	-1073.891357421875	-178.4828491210938	281.1514587402344	-1128.770141601563	-256.6565551757813	269.3411560058594	-1166.372314453125	-218.3048248291016	250.3234252929688	-1152.160766601563	-247.2090759277344	180.3114929199219	-1102.816162109375	-346.0704956054688	124.0238342285157	-1107.608032226563	-305.3940124511719	139.4403533935547	-1027.073608398438	-411.8992004394532	97.27978515625003	-1048.966430664063	-198.7175903320313	56.89135742187501	-1050.741455078125	-204.2741241455079	50.41661071777345	-1097.026000976563	-260.5084228515626	36.52109146118165	-1138.189331054688	-250.3205566406251	738.8784179687501	-872.0007934570315	-191.0492401123047	712.8663330078126	-883.541442871094	-165.183822631836	733.3385620117189	-891.647644042969	-169.686767578125	632.5460205078126	-891.4196777343752	-82.7007522583008	530.6134033203126	-905.2189941406252	-81.3977508544922	525.1593627929689	-1040.786743164063	72.51787567138673	420.155242919922	-935.307067871094	68.19139862060548	314.6557312011719	-909.0292968750002	105.2215881347657	340.2577209472657	-920.9449462890627	146.2629547119141	316.5820617675782	-955.696472167969	182.4475860595703	195.722885131836	-934.3239746093752	183.7517547607422	216.3733062744141	-1021.756164550781	160.3492889404297	119.4631042480469	-986.501647949219	340.0634765625001	250.3573303222657	-1008.28271484375	334.7258911132813	251.7339782714844	-969.1655273437502	320.8492126464844	207.4655456542969	-915.2488403320315	nan	nan	nan	
860	4.295	-217.9021148681641	1657.859375	-1142.137084960938	-331.3667907714844	1587.41650390625	-1186.921142578125	-379.1071777343751	1537.435180664063	-1056.79736328125	-358.5386047363282	1436.865478515625	-1104.002685546875	-454.6308593750001	1146.638549804688	-1082.678344726563	-238.3404235839844	1367.297119140625	-1113.18408203125	-296.3411865234376	1442.211303710938	-1240.6689453125	-136.4688262939453	1439.203247070313	-1309.52392578125	-112.9872589111328	1451.561401367188	-1267.399536132813	-67.97518157958986	1439.247924804688	-1305.161743164063	-6.506859302520754	1423.890869140625	-1303.267700195313	-8.905572891235353	1366.057739257813	-1274.576293945313	nan	nan	nan	257.9268188476563	1498.036987304688	-1237.924926757813	319.8534240722657	1511.365234375	-1141.489868164063	-263.2829895019532	1421.660888671875	-977.104187011719	-100.9765396118164	1390.337768554688	-906.2119140625002	-78.85845947265626	1418.0546875	-939.877868652344	-32.30575561523438	1386.8994140625	-915.4934692382815	28.88767433166505	1390.628295898438	-931.5623779296877	25.47526931762696	1335.032958984375	-983.300720214844	267.7826843261719	1486.374389648438	-1075.293701171875	285.6347961425782	1476.154174804688	-1002.332946777344	356.3918457031251	1515.456909179688	-1085.830932617188	-320.2648925781251	944.6254882812502	-1178.111328125	-316.1273498535157	966.684509277344	-957.3916625976565	-499.0996093750001	997.1339111328127	-1061.596801757813	-508.6373901367189	964.1990966796877	-1086.2919921875	-509.4061279296876	969.267761230469	-1030.54296875	-320.1692199707032	683.3479614257814	-1221.452880859375	-246.5906982421876	641.1429443359376	-1232.475830078125	-209.5007781982422	668.8643188476564	-1240.700317382813	-232.6339263916016	586.7333984375001	-1213.014892578125	-151.32958984375	491.9623413085939	-1200.869750976563	-149.602783203125	490.0266418457032	-1074.10595703125	-178.8155364990235	281.1883544921876	-1129.09423828125	-257.1846008300782	269.6145629882813	-1166.48291015625	-218.8694610595704	250.6212005615235	-1152.429809570313	-247.656723022461	180.5375671386719	-1103.083984375	-346.1938781738282	124.0908813476563	-1107.637817382813	-305.3914489746094	139.533432006836	-1027.151489257813	-412.0567932128907	97.41141510009768	-1048.989868164063	-198.6893920898438	56.92871856689455	-1050.728271484375	-204.3144836425782	50.4642677307129	-1096.982177734375	-260.6618652343751	36.57229614257813	-1138.257690429688	-250.1773681640626	740.0197143554689	-872.0127563476565	-190.9995727539063	714.0657348632814	-883.4060668945315	-165.6756591796875	734.2029418945314	-891.1315917968752	-169.7013397216797	633.7609863281251	-891.545104980469	-82.82219696044923	531.6184692382814	-905.2828369140627	-81.39346313476564	526.6066894531251	-1040.854858398438	72.25720214843751	420.9352416992189	-935.2436523437502	67.76743316650392	315.7378234863282	-908.9562988281252	105.4145278930664	341.0397644042969	-920.9531860351565	145.9597930908203	317.4923095703126	-955.6939697265627	181.5809631347657	196.3385467529297	-934.5212402343752	183.3006591796875	217.0101470947266	-1021.783264160156	158.9215393066407	119.6010284423828	-986.6196289062502	339.7785644531251	250.7855377197266	-1008.398986816406	334.2441101074219	251.9912719726563	-969.2105712890627	320.0810852050782	207.8565368652344	-915.4277343750002	nan	nan	nan	
861	4.3	-218.3942871093751	1659.503051757813	-1141.972900390625	-331.4242858886719	1588.941284179688	-1186.789184570313	-379.6448974609376	1539.187133789063	-1056.673461914063	-358.7680358886719	1438.37158203125	-1104.082641601563	-454.858123779297	1147.797485351563	-1082.8330078125	-238.6391601562501	1368.719604492188	-1113.312377929688	-296.8037109375001	1443.649780273438	-1240.726684570313	-136.8713684082032	1440.805908203125	-1309.555541992188	-113.2041244506836	1453.06787109375	-1267.52734375	-68.05799102783205	1440.506591796875	-1305.438110351563	-6.489767074584963	1425.210327148438	-1302.982788085938	-8.750634193420412	1367.4052734375	-1274.738037109375	nan	nan	nan	258.3545837402344	1499.181274414063	-1238.096923828125	319.5199890136719	1513.01904296875	-1141.57421875	-263.3642883300782	1423.050048828125	-977.023620605469	-101.2362060546875	1391.868896484375	-906.171813964844	-79.16506195068361	1419.5126953125	-939.9324951171877	-33.40025711059571	1387.486450195313	-916.6289672851565	28.71506118774415	1392.103759765625	-931.5250244140627	24.95273017883301	1336.912109375	-983.3626098632815	267.7752685546876	1488.018310546875	-1075.284057617188	285.7223205566407	1477.924194335938	-1002.295837402344	356.0220642089844	1517.3076171875	-1085.93798828125	-320.0208435058594	946.3317871093752	-1178.216552734375	-315.3225402832032	968.1992797851565	-957.678649902344	-498.8001403808595	998.5139770507815	-1061.7021484375	-508.1763305664064	965.6763916015627	-1086.45361328125	-508.6631164550782	970.5173950195315	-1030.51025390625	-320.6472778320313	684.6564331054689	-1221.70654296875	-247.3959503173829	642.2633666992189	-1232.793579101563	-210.1653137207032	669.8231811523439	-1240.983520507813	-233.1613464355469	587.4384155273439	-1213.24560546875	-152.447494506836	492.634246826172	-1201.162353515625	-150.3571166992188	490.749481201172	-1074.356079101563	-179.5192565917969	281.8789062500001	-1129.304321289063	-257.7497253417969	269.8909606933594	-1166.689453125	-219.9106445312501	250.9896392822266	-1152.476806640625	-248.0535125732422	181.1108856201172	-1103.281860351563	-346.9254455566407	124.6093444824219	-1107.833740234375	-305.3847961425782	139.5078125	-1027.282470703125	-411.6712341308595	97.190788269043	-1048.828002929688	-198.6643981933594	56.88303756713869	-1050.818115234375	-204.2403106689454	50.4908905029297	-1097.077514648438	-261.5366210937501	37.13734436035157	-1138.348022460938	-250.0659179687501	741.0180664062501	-872.169860839844	-190.9056396484375	715.3338623046876	-883.468444824219	-165.7173919677735	734.8963623046876	-892.8243408203127	-169.7678527832032	635.1551513671876	-891.533874511719	-82.92160797119142	532.6041870117189	-905.190124511719	-81.29543304443361	527.7536621093751	-1040.802978515625	71.96804046630861	422.1292114257814	-935.3968505859377	67.1952362060547	316.8375549316407	-908.879577636719	104.5356826782227	341.8977966308594	-920.8921508789065	145.7342681884766	317.9344482421876	-955.8033447265627	181.240234375	196.7222290039063	-934.7554321289065	182.7305450439453	217.7745819091797	-1021.710876464844	158.4999542236328	120.5920867919922	-986.6717529296877	339.2776489257813	251.288070678711	-1008.264038085938	333.6247558593751	252.2902374267579	-969.151794433594	319.7215881347657	208.3020935058594	-915.5541992187502	nan	nan	nan	
